<?xml version="1.0"?>
<svg xmlns="http://www.w3.org/2000/svg" id="Layer_5" enable-background="new 0 0 64 64" height="512px" viewBox="0 0 64 64" width="512px"><g><g><path d="m52 15c-.551 0-1-.448-1-1h-2c0 1.302.839 2.402 2 2.816v2.184h2v-2.184c1.161-.414 2-1.514 2-2.816 0-1.654-1.346-3-3-3-.551 0-1-.448-1-1s.449-1 1-1 1 .448 1 1h2c0-1.302-.839-2.402-2-2.816v-2.184h-2v2.184c-1.161.414-2 1.514-2 2.816 0 1.654 1.346 3 3 3 .551 0 1 .448 1 1s-.449 1-1 1z" data-original="#000000" class="active-path" data-old_color="#000000" fill="#18355F"/><path d="m12 49c.551 0 1 .448 1 1h2c0-1.302-.839-2.402-2-2.816v-2.184h-2v2.184c-1.161.414-2 1.514-2 2.816 0 1.654 1.346 3 3 3 .551 0 1 .448 1 1s-.449 1-1 1-1-.448-1-1h-2c0 1.302.839 2.402 2 2.816v2.184h2v-2.184c1.161-.414 2-1.514 2-2.816 0-1.654-1.346-3-3-3-.551 0-1-.448-1-1s.449-1 1-1z" data-original="#000000" class="active-path" data-old_color="#000000" fill="#18355F"/><path d="m17 35h10v2h-10z" data-original="#000000" class="active-path" data-old_color="#000000" fill="#18355F"/><path d="m17 31h10v2h-10z" data-original="#000000" class="active-path" data-old_color="#000000" fill="#18355F"/><path d="m17 39h10v2h-10z" data-original="#000000" class="active-path" data-old_color="#000000" fill="#18355F"/><path d="m39 41c.731 0 1.407-.211 1.997-.555.609.358 1.296.555 2.003.555 2.206 0 4-1.794 4-4s-1.794-4-4-4c-.707 0-1.394.197-2.003.555-.59-.344-1.266-.555-1.997-.555-2.206 0-4 1.794-4 4s1.794 4 4 4zm6-4c0 1.103-.897 2-2 2-.19 0-.358-.032-.515-.076.318-.573.515-1.223.515-1.924s-.197-1.351-.515-1.924c.157-.044.325-.076.515-.076 1.103 0 2 .897 2 2zm-6-2c1.103 0 2 .897 2 2s-.897 2-2 2-2-.897-2-2 .897-2 2-2z" data-original="#000000" class="active-path" data-old_color="#000000" fill="#18355F"/><path d="m51 37.051v-14.102c.33.03.662.051 1 .051 6.065 0 11-4.935 11-11s-4.935-11-11-11-11 4.935-11 11c0 2.657.947 5.097 2.521 7h-24.521v-15c0-1.654-1.346-3-3-3h-12c-1.654 0-3 1.346-3 3v20c0 1.654 1.346 3 3 3h9v14.051c-.33-.03-.662-.051-1-.051-6.065 0-11 4.935-11 11s4.935 11 11 11 11-4.935 11-11c0-2.657-.947-5.097-2.521-7h17.521c-.657 1.576-1 3.277-1 5 0 7.168 5.832 13 13 13s13-5.832 13-13c0-6.83-5.299-12.435-12-12.949zm-1 23.949c-.606 0-1.551-1.386-2.219-4h4.438c-.668 2.614-1.613 4-2.219 4zm-2.628-6c-.187-1.172-.315-2.507-.355-4h5.965c-.04 1.493-.168 2.828-.355 4zm-8.321-4h5.966c.037 1.367.152 2.719.342 4h-5.144c-.627-1.221-1.035-2.57-1.164-4zm8.949-6c1.654 0 3-1.346 3-3v-2.118c.896 1.414 1.858 4.518 1.983 9.118h-5.961c.04-1.394.163-2.746.362-4zm-32.998-20h33.984l.002 2h-33.984zm39.981 26h5.966c-.13 1.43-.537 2.779-1.164 4h-5.144c.19-1.281.305-2.633.342-4zm0-2c-.037-1.367-.152-2.719-.342-4h5.144c.626 1.221 1.034 2.57 1.164 4zm3.496-6h-4.207c-.313-1.366-.725-2.586-1.235-3.564 2.157.621 4.047 1.878 5.442 3.564zm-9.494-20h-33.984l-.001-1c0-.552.449-1 1-1h29.695c.99.696 2.098 1.229 3.29 1.57zm3.015-20c4.962 0 9 4.037 9 9s-4.038 9-9 9-9-4.037-9-9 4.038-9 9-9zm-36 16c-1.302 0-2.402.839-2.816 2h-10.184v-14h14v12zm-12-16h12c.551 0 1 .448 1 1v1h-14v-1c0-.552.449-1 1-1zm0 22c-.551 0-1-.448-1-1v-1h10v2zm11.005 4h33.985l.01 13c0 .552-.449 1-1 1h-29.695c-.99-.696-2.098-1.229-3.29-1.57zm-3.005 32c-4.962 0-9-4.037-9-9s4.038-9 9-9 9 4.037 9 9-4.038 9-9 9zm33.358-16c-.187 1.266-.298 2.617-.336 4h-5.956c.128-1.399.521-2.754 1.159-4zm-3.837 12h4.207c.313 1.366.725 2.586 1.235 3.564-2.157-.621-4.047-1.878-5.442-3.564zm11.516 3.564c.51-.978.922-2.198 1.235-3.564h4.207c-1.395 1.686-3.285 2.943-5.442 3.564z" data-original="#000000" class="active-path" data-old_color="#000000" fill="#18355F"/><path d="m5 19h10v-10h-10zm2-8h6v6h-6z" data-original="#000000" class="active-path" data-old_color="#000000" fill="#18355F"/></g></g> </svg>
