<?xml version="1.0"?>
<svg xmlns="http://www.w3.org/2000/svg" id="Layer_3" enable-background="new 0 0 64 64" height="512px" viewBox="0 0 64 64" width="512px"><g><g><path d="m48 23.184v-20.184c0-1.103-.897-2-2-2h-28c-1.103 0-2 .897-2 2v16.237c-1.171.475-2 1.62-2 2.959v39.804c0 .552.448 1 1 1h34c.552 0 1-.448 1-1v-36c0-1.302-.839-2.402-2-2.816zm0 26.816h-.586l-8-8h8.586zm-11.414-8 8 8h-3.172l-8-8zm-6 0 8 8h-5.172l-8-8zm-8 0 8 8h-3.172l-8-8zm-6 0 8 8h-8.586v-8zm-.586 10h32v4.982c-1.072-.004-2.141-.338-3-.983l-.8-.599c-2.407-1.807-5.994-1.806-8.4 0l-.8.6c-1.719 1.29-4.281 1.291-6 0l-.8-.6c-2.407-1.807-5.994-1.806-8.4 0l-.8.6c-.858.644-1.932.977-3 .982zm32-12h-32v-2.011c1.497-.006 2.998-.487 4.2-1.389l.8-.6c1.719-1.29 4.281-1.291 6 0l.8.6c2.407 1.807 5.994 1.806 8.4 0l.8-.6c1.719-1.29 4.281-1.291 6 0l.8.6c1.204.903 2.695 1.4 4.2 1.4zm-5.032-14h-4.968v-11h8v8.057c-.408.096-.78.317-1.059.642zm-19.968-9h-3v2h2v3.075l-2.74-2.319c-.367-.311-.8-.521-1.26-.641v-4.115h8v10.46l-2-1.692v-5.768c0-.552-.448-1-1-1zm13-2v11h-8v-11zm-8-2v-10h8v10zm8 15v1.945c-.334.034-.671.055-1.01.055-2.151 0-4.239-.711-5.95-2zm2 0h2.954c-.892.675-1.892 1.186-2.954 1.525zm8-15h-8v-10h8zm-20-10v10h-8v-10zm-8.804 18c.283 0 .557.101.771.283l9.34 7.903c2.146 1.814 4.874 2.814 7.683 2.814 3.405 0 6.626-1.46 8.883-4h.127v-.132c.006-.007.013-.013.02-.02l2.44-2.848h.54c.551 0 1 .449 1 1v9.982c-1.072-.004-2.141-.338-3-.983l-.8-.599c-2.407-1.807-5.994-1.806-8.4 0l-.8.6c-1.719 1.29-4.281 1.291-6 0l-.8-.6c-2.407-1.807-5.994-1.806-8.4 0l-.8.6c-.858.645-1.932.977-3 .982v-13.786c0-.659.537-1.196 1.196-1.196zm30.804 40h-32v-2.011c1.497-.007 2.998-.487 4.2-1.388l.8-.601c1.719-1.29 4.281-1.291 6 0l.8.6c2.407 1.807 5.994 1.806 8.4 0l.8-.6c1.719-1.29 4.281-1.291 6 0l.8.6c1.204.903 2.695 1.4 4.2 1.4z" data-original="#000000" class="active-path" data-old_color="#000000" fill="#18355F"/><path d="m22 11h2v-6c0-.552-.448-1-1-1h-3v2h2z" data-original="#000000" class="active-path" data-old_color="#000000" fill="#18355F"/><path d="m33 4h-3v2h2v5h2v-6c0-.552-.448-1-1-1z" data-original="#000000" class="active-path" data-old_color="#000000" fill="#18355F"/><path d="m42 6v5h2v-6c0-.552-.448-1-1-1h-3v2z" data-original="#000000" class="active-path" data-old_color="#000000" fill="#18355F"/><path d="m43 17h-3v2h2v5h2v-6c0-.552-.448-1-1-1z" data-original="#000000" class="active-path" data-old_color="#000000" fill="#18355F"/><path d="m32 19v5h2v-6c0-.552-.448-1-1-1h-3v2z" data-original="#000000" class="active-path" data-old_color="#000000" fill="#18355F"/></g></g> </svg>
