<?xml version="1.0"?>
<svg xmlns="http://www.w3.org/2000/svg" height="512px" viewBox="0 0 256 256" width="512px" class=""><g><path d="m80.163 97.172a2.5 2.5 0 0 1 -2.5-2.5v-11.813a3.727 3.727 0 0 0 -3.723-3.722h-11.54a3.726 3.726 0 0 0 -3.721 3.722v11.813a2.5 2.5 0 0 1 -5 0v-11.813a8.731 8.731 0 0 1 8.721-8.722h11.54a8.732 8.732 0 0 1 8.723 8.722v11.813a2.5 2.5 0 0 1 -2.5 2.5z" fill="#65c1d6" data-original="#65C1D6" class="active-path" data-old_color="#65c1d6" style="fill:#18355F"/><path d="m68.031 77.168a11.149 11.149 0 1 1 11.15-11.149 11.161 11.161 0 0 1 -11.15 11.149zm0-17.3a6.149 6.149 0 1 0 6.15 6.149 6.155 6.155 0 0 0 -6.15-6.147z" fill="#65c1d6" data-original="#65C1D6" class="active-path" data-old_color="#65c1d6" style="fill:#18355F"/><path d="m68.031 38.792a31.423 31.423 0 1 0 31.423 31.423 31.459 31.459 0 0 0 -31.423-31.423zm0 57.846a26.423 26.423 0 1 1 26.423-26.423 26.453 26.453 0 0 1 -26.423 26.423z" fill="#846f75" data-original="#846F75" class="" data-old_color="#846f75" style="fill:#18355F"/><path d="m226.815 28.868h-77.693a2.5 2.5 0 0 0 -2.5 2.5v77.694a2.5 2.5 0 0 0 2.5 2.5h34.878v25.7l-7.518-7.517a2.5 2.5 0 0 0 -3.535 3.535l11.785 11.785a2.5 2.5 0 0 0 3.536 0l11.785-11.785a2.5 2.5 0 0 0 -3.535-3.535l-7.518 7.521v-25.7h37.817a2.5 2.5 0 0 0 2.5-2.5v-77.698a2.5 2.5 0 0 0 -2.502-2.5zm-2.5 77.694h-72.693v-72.694h72.693z" fill="#846f75" data-original="#846F75" class="" data-old_color="#846f75" style="fill:#18355F"/><path d="m106.878 149.438h-77.693a2.5 2.5 0 0 0 -2.5 2.5v77.694a2.5 2.5 0 0 0 2.5 2.5h77.693a2.5 2.5 0 0 0 2.5-2.5v-77.694a2.5 2.5 0 0 0 -2.5-2.5zm-2.5 77.694h-72.693v-72.694h72.693z" fill="#846f75" data-original="#846F75" class="" data-old_color="#846f75" style="fill:#18355F"/><path d="m226.815 149.438h-77.693a2.5 2.5 0 0 0 -2.5 2.5v36.347h-25.705l7.518-7.517a2.5 2.5 0 0 0 -3.536-3.536l-11.785 11.786a2.5 2.5 0 0 0 0 3.535l11.786 11.785a2.5 2.5 0 0 0 3.536-3.535l-7.518-7.518h25.705v36.347a2.5 2.5 0 0 0 2.5 2.5h77.693a2.5 2.5 0 0 0 2.5-2.5v-77.694a2.5 2.5 0 0 0 -2.501-2.5zm-2.5 77.694h-72.693v-72.694h72.693z" fill="#846f75" data-original="#846F75" class="" data-old_color="#846f75" style="fill:#18355F"/><path d="m135.083 72.715-7.518 7.517a2.5 2.5 0 0 0 3.536 3.536l11.785-11.786a2.5 2.5 0 0 0 0-3.535l-11.786-11.785a2.5 2.5 0 0 0 -3.536 3.535l7.518 7.518h-25.7v-36.347a2.5 2.5 0 0 0 -2.5-2.5h-77.697a2.5 2.5 0 0 0 -2.5 2.5v77.694a2.5 2.5 0 0 0 2.5 2.5h77.693a2.5 2.5 0 0 0 2.5-2.5v-36.347zm-30.7 33.847h-72.698v-72.694h72.693z" fill="#846f75" data-original="#846F75" class="" data-old_color="#846f75" style="fill:#18355F"/><path d="m68.031 219.758a28.973 28.973 0 1 0 -28.972-28.973 29.006 29.006 0 0 0 28.972 28.973zm0-52.945a23.973 23.973 0 1 1 -23.972 23.972 24 24 0 0 1 23.972-23.972z" fill="#846f75" data-original="#846F75" class="" data-old_color="#846f75" style="fill:#18355F"/><g fill="#65c1d6"><path d="m65.532 200.185c-.041 0-.083 0-.124 0a2.5 2.5 0 0 1 -1.81-.914l-6.971-8.519a2.5 2.5 0 1 1 3.869-3.166l5.222 6.38 10.825-10.824a2.5 2.5 0 1 1 3.535 3.535l-12.778 12.775a2.5 2.5 0 0 1 -1.768.733z" data-original="#65C1D6" class="active-path" data-old_color="#65C1D6" style="fill:#18355F"/><path d="m193.165 58.048h-23.333a2.5 2.5 0 0 1 0-5h23.333a2.5 2.5 0 0 1 0 5z" data-original="#65C1D6" class="active-path" data-old_color="#65C1D6" style="fill:#18355F"/><path d="m203.165 72.715h-33.333a2.5 2.5 0 0 1 0-5h33.333a2.5 2.5 0 0 1 0 5z" data-original="#65C1D6" class="active-path" data-old_color="#65C1D6" style="fill:#18355F"/><path d="m203.165 87.382h-33.333a2.5 2.5 0 0 1 0-5h33.333a2.5 2.5 0 1 1 0 5z" data-original="#65C1D6" class="active-path" data-old_color="#65C1D6" style="fill:#18355F"/><path d="m193.165 178.618h-23.333a2.5 2.5 0 0 1 0-5h23.333a2.5 2.5 0 1 1 0 5z" data-original="#65C1D6" class="active-path" data-old_color="#65C1D6" style="fill:#18355F"/><path d="m203.165 193.285h-33.333a2.5 2.5 0 0 1 0-5h33.333a2.5 2.5 0 0 1 0 5z" data-original="#65C1D6" class="active-path" data-old_color="#65C1D6" style="fill:#18355F"/><path d="m203.165 207.952h-33.333a2.5 2.5 0 0 1 0-5h33.333a2.5 2.5 0 0 1 0 5z" data-original="#65C1D6" class="active-path" data-old_color="#65C1D6" style="fill:#18355F"/></g></g> </svg>
