<?xml version="1.0"?>
<svg xmlns="http://www.w3.org/2000/svg" xmlns:xlink="http://www.w3.org/1999/xlink" version="1.1" id="Layer_1" x="0px" y="0px" viewBox="0 0 512 512" style="enable-background:new 0 0 512 512;" xml:space="preserve" width="512px" height="512px" class=""><g><g>
	<g>
		<path d="M256,0C157.277,0,76.96,80.317,76.96,179.04c0,36.285,9.242,74.554,27.471,113.744    c14.455,31.078,34.574,62.823,59.798,94.353c42.82,53.525,84.989,87.481,86.763,88.901c1.464,1.172,3.236,1.757,5.008,1.757    c1.772,0,3.543-0.586,5.008-1.757c1.774-1.419,43.943-35.376,86.763-88.901c25.224-31.53,45.342-63.275,59.798-94.353    c18.229-39.19,27.471-77.459,27.471-113.744C435.04,80.317,354.723,0,256,0z M393.11,285.852    c-13.88,29.884-33.275,60.503-57.647,91.003c-33.314,41.693-67.022,71.848-79.464,82.477    c-12.443-10.628-46.149-40.784-79.464-82.477c-24.372-30.501-43.767-61.119-57.646-91.003    c-17.184-36.995-25.896-72.933-25.896-106.812c0-89.882,73.124-163.006,163.006-163.006S419.006,89.157,419.006,179.04    C419.006,212.919,410.294,248.857,393.11,285.852z" data-original="#000000" class="active-path" data-old_color="#000000" fill="#18355F"/>
	</g>
</g><g>
	<g>
		<path d="M315.858,495.967H196.142c-4.427,0-8.017,3.589-8.017,8.017c0,4.427,3.589,8.017,8.017,8.017h119.716    c4.427,0,8.017-3.589,8.017-8.017C323.875,499.556,320.285,495.967,315.858,495.967z" data-original="#000000" class="active-path" data-old_color="#000000" fill="#18355F"/>
	</g>
</g><g>
	<g>
		<path d="M391.398,163.312c-7.017-62.465-57.454-112.807-119.927-119.701c-39.351-4.343-77.126,7.692-106.369,33.884    c-28.843,25.836-45.386,62.848-45.386,101.545c0,38.86,16.7,75.984,45.82,101.856c3.046,2.705,6.913,4.097,10.834,4.096    c2.842,0,5.713-0.731,8.319-2.22l22.573-12.899c0.104,0.117,0.202,0.236,0.313,0.347c1.085,1.085,26.781,26.677,44.839,35.706    c1.129,0.564,2.357,0.847,3.585,0.847c1.228,0,2.456-0.282,3.585-0.847c18.059-9.029,43.754-34.621,44.839-35.706    c0.111-0.111,0.21-0.231,0.313-0.347l22.57,12.897c6.205,3.545,13.904,2.791,19.159-1.877    c15.95-14.172,28.507-32.088,36.314-51.81C391.053,208.18,393.952,186.052,391.398,163.312z M256,289.605    c-12.267-7.342-27.977-21.938-34.283-27.992l3.989-2.28c5.439-3.107,9.435-8.107,11.365-13.893l6.006,3.604    c3.986,2.391,8.455,3.587,12.924,3.587c4.469,0,8.938-1.196,12.924-3.587l6.006-3.604c1.928,5.786,5.926,10.785,11.363,13.893    l1.228,0.701c0.518,0.386,1.082,0.708,1.679,0.96l1.083,0.619C283.977,267.668,268.267,282.264,256,289.605z M256,221.261h17.102    c4.883,0,9.522-1.053,13.714-2.931c-1.284,1.598-2.842,2.985-4.64,4.064l-21.502,12.902c-2.883,1.729-6.466,1.729-9.349,0    l-21.502-12.902c-5.281-3.169-8.563-8.964-8.563-15.124v-37.557c5.317-0.264,12.787-0.818,20.909-1.977    c16.975-2.425,29.989-6.522,38.836-12.211l9.733,9.733v22.332c0,9.725-7.912,17.637-17.637,17.637H256    c-4.427,0-8.017,3.589-8.017,8.017S251.573,221.261,256,221.261z M293.885,245.171c-2.603-1.66-4.215-4.542-4.215-7.647    c0-0.304-0.02-0.602-0.053-0.897l0.808-0.485c10.083-6.05,16.347-17.113,16.347-28.872v-45.333c0-2.126-0.844-4.164-2.348-5.668    l-17.102-17.102c-3.131-3.131-8.207-3.131-11.337,0c-5.652,5.652-18.4,10.152-35.894,12.67    c-14.252,2.051-26.724,2.084-26.846,2.084c-4.427,0-8.017,3.589-8.017,8.017v45.333c0,11.759,6.264,22.823,16.347,28.872    l0.808,0.485c-0.033,0.295-0.053,0.593-0.053,0.897c0,3.105-1.611,5.987-4.215,7.647c-11.57-2.16-22.245-5.334-30.998-9.254    c-0.024-0.011-0.044-0.022-0.061-0.031c0.342-42.52,5.149-73.901,14.695-95.935c11.2-25.843,28.945-38.405,54.251-38.405    s43.051,12.563,54.247,38.405c9.546,22.034,14.353,53.418,14.695,95.935c-0.017,0.01-0.036,0.02-0.061,0.031    C316.128,239.838,305.456,243.01,293.885,245.171z M335.818,268.907c-0.046,0.041-0.308,0.083-0.556-0.058l-21.045-12.026    c6.154-1.804,11.912-3.897,17.22-6.276c5.841-2.617,9.587-8.345,9.54-14.591c-0.345-44.811-5.585-78.3-16.017-102.38    C311.141,101.683,287.94,85.511,256,85.511s-55.141,16.171-68.96,48.065c-10.432,24.08-15.672,57.568-16.017,102.381    c-0.047,6.247,3.697,11.974,9.54,14.59c5.308,2.378,11.065,4.472,17.219,6.277l-21.047,12.026    c-0.247,0.141-0.506,0.098-0.55,0.059c-25.697-22.83-40.435-55.587-40.435-89.869c0-34.145,14.598-66.804,40.05-89.602    c25.801-23.111,59.154-33.727,93.912-29.889c55.09,6.079,99.564,50.471,105.754,105.554    C379.917,204.728,365.466,242.564,335.818,268.907z" data-original="#000000" class="active-path" data-old_color="#000000" fill="#18355F"/>
	</g>
</g></g> </svg>
